# xmcd
#
# Track frame offsets: 
#        150
#        30912
#        43318
#        62338
#        83255
#        103400
#        130265
#        149691
#        164503
#        181368
#        201670
#        223094
#        262318
#        286056
#
# Disc length: 4055 seconds
#
# Revision: 0
# Processed by: cddbd v1.5.2PL0 Copyright (c) Steve Scherf et al.
# Submitted via: ExactAudioCopy v1.0b1
#
DISCID=da0fd50e
DTITLE=Albert King - Tomato Years
DYEAR=1994
DGENRE=Modern Electric Blues
TTITLE0=Cold Women With Warm Hearts
TTITLE1=Truckload Of Lovin'
TTITLE2=Cadillac Assembly Line
TTITLE3=Angel Of Mercy
TTITLE4=The Very Thought Of You
TTITLE5=We All Wanna Boogie
TTITLE6=Get Out Of My Life Woman
TTITLE7=Call My Job
TTITLE8=Good Time Charly
TTITLE9=I'm Gonna Call You Soon As The Sun Goes Down
TTITLE10=That's What The Blues Is All About
TTITLE11=Love Shock
TTITLE12=I'll Play The Blues For You
TTITLE13=Blues At Sunrise
EXTD=
EXTT0=
EXTT1=
EXTT2=
EXTT3=
EXTT4=
EXTT5=
EXTT6=
EXTT7=
EXTT8=
EXTT9=
EXTT10=
EXTT11=
EXTT12=
EXTT13=
PLAYORDER=
